<?xml version="1.0" encoding="utf-8"?>
<!-- Generator: Adobe Illustrator 15.1.0, SVG Export Plug-In . SVG Version: 6.00 Build 0)  -->
<!DOCTYPE svg PUBLIC "-//W3C//DTD SVG 1.1//EN" "http://www.w3.org/Graphics/SVG/1.1/DTD/svg11.dtd">
<svg version="1.1" id="Layer_1" xmlns="http://www.w3.org/2000/svg" xmlns:xlink="http://www.w3.org/1999/xlink" x="0px" y="0px"
	 width="304.959px" height="104.132px" viewBox="35 0 270 104.132" enable-background="new 0 0 304.959 104.132"
	 xml:space="preserve">
<g>
	<defs>
		<rect id="SVGID_1_" width="304.959" height="104.132"/>
	</defs>
	<clipPath id="SVGID_2_">
		<use xlink:href="#SVGID_1_"  overflow="visible"/>
	</clipPath>
	<g clip-path="url(#SVGID_2_)">
		<path fill="#49B749" d="M154.657,34.183l-0.171-1.49h-0.073c-0.66,0.928-1.931,1.759-3.616,1.759
			c-2.394,0-3.616-1.686-3.616-3.396c0-2.858,2.541-4.422,7.109-4.397v-0.244c0-0.977-0.27-2.736-2.688-2.736
			c-1.1,0-2.248,0.342-3.078,0.879l-0.489-1.417c0.977-0.635,2.394-1.05,3.884-1.05c3.615,0,4.495,2.467,4.495,4.837v4.421
			c0,1.026,0.049,2.028,0.195,2.834H154.657z M154.34,28.149c-2.346-0.049-5.008,0.367-5.008,2.663c0,1.392,0.928,2.052,2.027,2.052
			c1.54,0,2.516-0.977,2.859-1.979c0.073-0.22,0.122-0.464,0.122-0.684V28.149z"/>
		<path fill="#49B749" d="M160.546,22.359l2.32,6.645c0.391,1.075,0.709,2.052,0.953,3.029h0.073
			c0.269-0.977,0.61-1.954,1.001-3.029l2.297-6.645h2.247l-4.642,11.824h-2.052l-4.495-11.824H160.546z"/>
		<path fill="#49B749" d="M172.442,28.662c0.049,2.907,1.905,4.104,4.056,4.104c1.538,0,2.467-0.269,3.273-0.611l0.366,1.539
			c-0.758,0.342-2.052,0.733-3.934,0.733c-3.64,0-5.813-2.394-5.813-5.96c0-3.567,2.101-6.376,5.545-6.376
			c3.86,0,4.886,3.396,4.886,5.57c0,0.439-0.049,0.782-0.073,1.001H172.442z M178.745,27.123c0.024-1.368-0.562-3.493-2.98-3.493
			c-2.174,0-3.127,2.003-3.298,3.493H178.745z"/>
		<path fill="#49B749" d="M183.485,25.56c0-1.222-0.024-2.223-0.098-3.2h1.905l0.122,1.954h0.049
			c0.587-1.124,1.955-2.223,3.909-2.223c1.637,0,4.178,0.977,4.178,5.032v7.06h-2.15v-6.816c0-1.905-0.708-3.493-2.736-3.493
			c-1.416,0-2.516,1.001-2.882,2.199c-0.098,0.269-0.146,0.635-0.146,1.001v7.109h-2.15V25.56z"/>
		<path fill="#49B749" d="M196.751,31.984c0.635,0.416,1.759,0.855,2.834,0.855c1.563,0,2.296-0.782,2.296-1.759
			c0-1.026-0.61-1.588-2.198-2.174c-2.126-0.757-3.127-1.93-3.127-3.347c0-1.905,1.539-3.469,4.079-3.469
			c1.197,0,2.248,0.342,2.907,0.732l-0.537,1.563c-0.464-0.293-1.319-0.684-2.419-0.684c-1.27,0-1.979,0.733-1.979,1.612
			c0,0.977,0.709,1.417,2.248,2.003c2.052,0.782,3.103,1.808,3.103,3.567c0,2.076-1.612,3.542-4.422,3.542
			c-1.295,0-2.492-0.317-3.322-0.806L196.751,31.984z"/>
		<path fill="#49B749" d="M209.113,19.037c0.024,0.733-0.514,1.319-1.368,1.319c-0.758,0-1.295-0.586-1.295-1.319
			c0-0.757,0.562-1.344,1.344-1.344C208.6,17.693,209.113,18.28,209.113,19.037z M206.719,34.183V22.359h2.15v11.824H206.719z"/>
		<path fill="#49B749" d="M218.982,34.183l-0.171-1.49h-0.073c-0.659,0.928-1.93,1.759-3.615,1.759
			c-2.395,0-3.615-1.686-3.615-3.396c0-2.858,2.54-4.422,7.108-4.397v-0.244c0-0.977-0.269-2.736-2.688-2.736
			c-1.099,0-2.247,0.342-3.078,0.879l-0.488-1.417c0.978-0.635,2.395-1.05,3.885-1.05c3.615,0,4.494,2.467,4.494,4.837v4.421
			c0,1.026,0.049,2.028,0.196,2.834H218.982z M218.665,28.149c-2.345-0.049-5.008,0.367-5.008,2.663
			c0,1.392,0.929,2.052,2.027,2.052c1.539,0,2.517-0.977,2.858-1.979c0.073-0.22,0.122-0.464,0.122-0.684V28.149z"/>
	</g>
	<g clip-path="url(#SVGID_2_)">
	</g>
	<g clip-path="url(#SVGID_2_)">
		<path fill="#733F98" d="M21.673,59.192c1.263,0.767,3.879,1.669,5.909,1.669c2.075,0,2.932-0.722,2.932-1.85
			c0-1.127-0.677-1.669-3.248-2.525c-4.556-1.534-6.314-4.015-6.27-6.631c0-4.104,3.518-7.217,8.976-7.217
			c2.571,0,4.872,0.586,6.225,1.263l-1.218,4.736c-0.992-0.541-2.887-1.263-4.781-1.263c-1.669,0-2.616,0.677-2.616,1.804
			c0,1.038,0.857,1.579,3.563,2.526c4.195,1.443,5.954,3.563,5.999,6.811c0,4.104-3.248,7.127-9.562,7.127
			c-2.887,0-5.458-0.632-7.127-1.534L21.673,59.192z"/>
		<path fill="#733F98" d="M48.96,36.82v6.315h4.916v5.052H48.96v7.984c0,2.661,0.631,3.879,2.706,3.879
			c0.857,0,1.534-0.091,2.03-0.181l0.045,5.187c-0.902,0.361-2.526,0.587-4.465,0.587c-2.21,0-4.06-0.767-5.142-1.895
			c-1.263-1.308-1.895-3.428-1.895-6.54v-9.021h-2.932v-5.052h2.932v-4.781L48.96,36.82z"/>
		<path fill="#733F98" d="M79.45,53.915c0,8.074-5.729,11.772-11.637,11.772c-6.45,0-11.412-4.24-11.412-11.366
			c0-7.127,4.691-11.683,11.772-11.683C74.939,42.639,79.45,47.285,79.45,53.915z M63.482,54.141c0,3.789,1.579,6.631,4.511,6.631
			c2.661,0,4.375-2.661,4.375-6.631c0-3.292-1.263-6.63-4.375-6.63C64.7,47.51,63.482,50.893,63.482,54.141z"/>
		<path fill="#733F98" d="M83.688,50.397c0-3.248-0.09-5.368-0.181-7.262h5.909l0.225,4.059h0.181
			c1.127-3.202,3.834-4.556,5.954-4.556c0.632,0,0.947,0,1.443,0.09v6.45c-0.496-0.09-1.083-0.181-1.849-0.181
			c-2.526,0-4.24,1.354-4.691,3.473c-0.09,0.451-0.135,0.992-0.135,1.533v11.187h-6.856V50.397z"/>
		<path fill="#733F98" d="M105.789,56.351c0.226,2.842,3.022,4.195,6.224,4.195c2.346,0,4.24-0.316,6.089-0.902l0.902,4.646
			c-2.255,0.902-5.007,1.354-7.984,1.354c-7.487,0-11.772-4.33-11.772-11.231c0-5.593,3.473-11.772,11.141-11.772
			c7.126,0,9.833,5.548,9.833,11.006c0,1.173-0.135,2.21-0.226,2.706H105.789z M113.862,51.66c0-1.669-0.722-4.466-3.879-4.466
			c-2.887,0-4.06,2.616-4.24,4.466H113.862z"/>
		<path fill="#733F98" d="M125.092,65.191V48.187h-2.887v-5.052h2.887v-0.857c0-2.662,0.812-5.593,2.796-7.397
			c1.714-1.624,4.105-2.21,6.089-2.21c1.534,0,2.707,0.18,3.654,0.451l-0.271,5.277c-0.586-0.18-1.308-0.315-2.21-0.315
			c-2.255,0-3.203,1.759-3.203,3.924v1.128h4.42v5.052h-4.375v17.004H125.092z"/>
		<path fill="#733F98" d="M139.706,50.397c0-3.248-0.09-5.368-0.181-7.262h5.909l0.226,4.059h0.181
			c1.127-3.202,3.834-4.556,5.954-4.556c0.631,0,0.948,0,1.444,0.09v6.45c-0.496-0.09-1.083-0.181-1.85-0.181
			c-2.526,0-4.24,1.354-4.691,3.473c-0.09,0.451-0.135,0.992-0.135,1.533v11.187h-6.856V50.397z"/>
		<path fill="#733F98" d="M178.269,53.915c0,8.074-5.729,11.772-11.637,11.772c-6.45,0-11.412-4.24-11.412-11.366
			c0-7.127,4.691-11.683,11.772-11.683C173.758,42.639,178.269,47.285,178.269,53.915z M162.302,54.141
			c0,3.789,1.578,6.631,4.51,6.631c2.661,0,4.376-2.661,4.376-6.631c0-3.292-1.264-6.63-4.376-6.63
			C163.52,47.51,162.302,50.893,162.302,54.141z"/>
		<path fill="#733F98" d="M182.507,50.171c0-2.751-0.09-5.097-0.18-7.036h5.953l0.316,3.022h0.135
			c0.902-1.398,3.157-3.519,6.812-3.519c4.51,0,7.893,2.977,7.893,9.472v13.081h-6.855V52.968c0-2.841-0.992-4.781-3.473-4.781
			c-1.895,0-3.022,1.308-3.474,2.571c-0.181,0.406-0.271,1.083-0.271,1.714v12.72h-6.856V50.171z"/>
		<path fill="#733F98" d="M216.335,36.82v6.315h4.917v5.052h-4.917v7.984c0,2.661,0.632,3.879,2.707,3.879
			c0.856,0,1.533-0.091,2.029-0.181l0.045,5.187c-0.902,0.361-2.525,0.587-4.465,0.587c-2.211,0-4.06-0.767-5.143-1.895
			c-1.263-1.308-1.895-3.428-1.895-6.54v-9.021h-2.932v-5.052h2.932v-4.781L216.335,36.82z"/>
	</g>
	<g clip-path="url(#SVGID_2_)">
		<path fill="#808285" d="M26.253,78.197h-2.382v7.376h-0.966v-7.376h-2.376v-0.875h5.725V78.197z"/>
		<path fill="#808285" d="M30.943,82.863h-4.16c0.016,0.656,0.192,1.162,0.529,1.519c0.338,0.357,0.802,0.535,1.393,0.535
			c0.664,0,1.273-0.219,1.83-0.655v0.886c-0.518,0.376-1.203,0.563-2.054,0.563c-0.832,0-1.486-0.268-1.962-0.802
			c-0.476-0.535-0.713-1.288-0.713-2.259c0-0.917,0.26-1.664,0.78-2.241c0.52-0.577,1.165-0.865,1.936-0.865
			s1.367,0.249,1.789,0.748c0.422,0.498,0.633,1.19,0.633,2.076V82.863z M29.976,82.063c-0.004-0.545-0.135-0.969-0.394-1.271
			s-0.619-0.454-1.079-0.454c-0.445,0-0.823,0.159-1.134,0.478c-0.311,0.318-0.502,0.734-0.575,1.248H29.976z"/>
		<path fill="#808285" d="M36.386,85.303c-0.453,0.272-0.99,0.408-1.611,0.408c-0.84,0-1.518-0.272-2.034-0.819
			c-0.516-0.547-0.774-1.255-0.774-2.126c0-0.971,0.278-1.75,0.834-2.339s1.298-0.883,2.227-0.883c0.518,0,0.974,0.096,1.369,0.287
			v0.967c-0.437-0.307-0.905-0.46-1.404-0.46c-0.602,0-1.096,0.216-1.481,0.646c-0.385,0.432-0.578,0.999-0.578,1.7
			c0,0.69,0.181,1.235,0.543,1.635c0.363,0.398,0.849,0.598,1.458,0.598c0.514,0,0.998-0.17,1.45-0.512V85.303z"/>
		<path fill="#808285" d="M42.703,85.573h-0.944v-3.395c0-1.228-0.457-1.841-1.369-1.841c-0.46,0-0.848,0.177-1.162,0.532
			c-0.315,0.354-0.472,0.81-0.472,1.366v3.337h-0.943v-8.723h0.943v3.81h0.023c0.452-0.744,1.097-1.116,1.933-1.116
			c1.327,0,1.991,0.8,1.991,2.398V85.573z"/>
		<path fill="#808285" d="M49.371,85.573h-0.944v-3.36c0-1.25-0.457-1.875-1.369-1.875c-0.472,0-0.862,0.177-1.171,0.532
			c-0.309,0.354-0.463,0.802-0.463,1.343v3.36H44.48v-5.892h0.943v0.979h0.023c0.445-0.744,1.089-1.116,1.933-1.116
			c0.644,0,1.137,0.208,1.479,0.624s0.512,1.018,0.512,1.804V85.573z"/>
		<path fill="#808285" d="M53.611,85.711c-0.871,0-1.566-0.274-2.085-0.825c-0.52-0.551-0.78-1.28-0.78-2.189
			c0-0.989,0.271-1.763,0.812-2.318c0.541-0.557,1.271-0.834,2.192-0.834c0.878,0,1.564,0.271,2.057,0.811
			c0.493,0.541,0.739,1.291,0.739,2.25c0,0.939-0.266,1.692-0.797,2.258C55.218,85.429,54.505,85.711,53.611,85.711z M53.681,80.338
			c-0.606,0-1.086,0.206-1.438,0.618c-0.353,0.412-0.529,0.981-0.529,1.706c0,0.698,0.178,1.248,0.535,1.651
			c0.356,0.402,0.834,0.604,1.433,0.604c0.61,0,1.079-0.197,1.407-0.592c0.328-0.396,0.492-0.957,0.492-1.687
			c0-0.736-0.164-1.304-0.492-1.703C54.759,80.537,54.291,80.338,53.681,80.338z"/>
		<path fill="#808285" d="M58.997,85.573h-0.943v-8.723h0.943V85.573z"/>
		<path fill="#808285" d="M63.369,85.711c-0.871,0-1.566-0.274-2.085-0.825c-0.52-0.551-0.78-1.28-0.78-2.189
			c0-0.989,0.271-1.763,0.812-2.318c0.541-0.557,1.271-0.834,2.192-0.834c0.878,0,1.564,0.271,2.057,0.811
			c0.493,0.541,0.739,1.291,0.739,2.25c0,0.939-0.266,1.692-0.797,2.258C64.976,85.429,64.263,85.711,63.369,85.711z M63.438,80.338
			c-0.606,0-1.086,0.206-1.438,0.618c-0.353,0.412-0.529,0.981-0.529,1.706c0,0.698,0.178,1.248,0.535,1.651
			c0.356,0.402,0.834,0.604,1.433,0.604c0.61,0,1.079-0.197,1.407-0.592c0.328-0.396,0.492-0.957,0.492-1.687
			c0-0.736-0.164-1.304-0.492-1.703C64.517,80.537,64.048,80.338,63.438,80.338z"/>
		<path fill="#808285" d="M72.84,85.102c0,2.163-1.036,3.245-3.107,3.245c-0.729,0-1.366-0.139-1.91-0.414v-0.944
			c0.664,0.368,1.296,0.553,1.898,0.553c1.45,0,2.175-0.771,2.175-2.313v-0.645h-0.023c-0.449,0.752-1.124,1.127-2.025,1.127
			c-0.732,0-1.322-0.262-1.769-0.785s-0.67-1.227-0.67-2.108c0-1.001,0.241-1.797,0.722-2.388s1.14-0.886,1.977-0.886
			c0.794,0,1.382,0.318,1.766,0.955h0.023v-0.817h0.944V85.102z M71.896,82.909v-0.868c0-0.469-0.158-0.869-0.475-1.203
			c-0.316-0.333-0.71-0.5-1.182-0.5c-0.583,0-1.04,0.212-1.37,0.636s-0.495,1.018-0.495,1.78c0,0.656,0.158,1.181,0.475,1.573
			c0.316,0.394,0.735,0.59,1.257,0.59c0.529,0,0.959-0.188,1.292-0.563C71.73,83.978,71.896,83.496,71.896,82.909z"/>
		<path fill="#808285" d="M79.439,79.682l-2.71,6.835c-0.483,1.22-1.162,1.83-2.037,1.83c-0.246,0-0.451-0.025-0.616-0.075v-0.846
			c0.204,0.069,0.39,0.104,0.558,0.104c0.476,0,0.833-0.284,1.07-0.852l0.472-1.116l-2.301-5.88h1.047l1.593,4.534
			c0.02,0.057,0.06,0.207,0.121,0.448h0.035c0.019-0.092,0.057-0.237,0.115-0.438l1.674-4.545H79.439z"/>
		<path fill="#808285" d="M86.59,77.68c-0.184-0.104-0.393-0.155-0.627-0.155c-0.66,0-0.99,0.416-0.99,1.248v0.909h1.381v0.806
			h-1.381v5.086h-0.938v-5.086h-1.007v-0.806h1.007v-0.955c0-0.617,0.178-1.105,0.535-1.464c0.357-0.359,0.802-0.538,1.335-0.538
			c0.288,0,0.516,0.034,0.685,0.104V77.68z"/>
		<path fill="#808285" d="M89.83,85.711c-0.871,0-1.566-0.274-2.085-0.825c-0.52-0.551-0.78-1.28-0.78-2.189
			c0-0.989,0.271-1.763,0.812-2.318c0.541-0.557,1.271-0.834,2.192-0.834c0.878,0,1.564,0.271,2.057,0.811
			c0.493,0.541,0.739,1.291,0.739,2.25c0,0.939-0.266,1.692-0.797,2.258C91.436,85.429,90.723,85.711,89.83,85.711z M89.899,80.338
			c-0.606,0-1.086,0.206-1.438,0.618c-0.353,0.412-0.529,0.981-0.529,1.706c0,0.698,0.178,1.248,0.535,1.651
			c0.356,0.402,0.834,0.604,1.433,0.604c0.61,0,1.079-0.197,1.407-0.592c0.328-0.396,0.492-0.957,0.492-1.687
			c0-0.736-0.164-1.304-0.492-1.703C90.978,80.537,90.509,80.338,89.899,80.338z"/>
		<path fill="#808285" d="M97.344,80.637c-0.165-0.127-0.403-0.189-0.713-0.189c-0.403,0-0.739,0.189-1.01,0.569
			s-0.406,0.897-0.406,1.554v3.003h-0.943v-5.892h0.943v1.214h0.023c0.134-0.414,0.339-0.737,0.615-0.97
			c0.276-0.231,0.585-0.348,0.926-0.348c0.246,0,0.434,0.026,0.564,0.08V80.637z"/>
		<path fill="#808285" d="M110.134,85.573h-0.961v-5.535c0-0.437,0.027-0.972,0.081-1.604h-0.023
			c-0.092,0.372-0.174,0.638-0.247,0.799l-2.819,6.341h-0.472l-2.813-6.294c-0.081-0.185-0.163-0.467-0.248-0.846h-0.023
			c0.031,0.329,0.046,0.868,0.046,1.616v5.523h-0.932v-8.251H103l2.532,5.754c0.195,0.441,0.322,0.771,0.379,0.989h0.035
			c0.165-0.452,0.297-0.79,0.397-1.013l2.583-5.73h1.208V85.573z"/>
		<path fill="#808285" d="M112.66,78.186c-0.169,0-0.313-0.058-0.432-0.173c-0.119-0.114-0.178-0.261-0.178-0.437
			c0-0.177,0.059-0.323,0.178-0.44c0.119-0.117,0.263-0.176,0.432-0.176c0.172,0,0.319,0.059,0.44,0.176
			c0.121,0.117,0.181,0.264,0.181,0.44c0,0.169-0.06,0.313-0.181,0.432C112.979,78.126,112.832,78.186,112.66,78.186z
			 M113.12,85.573h-0.943v-5.892h0.943V85.573z"/>
		<path fill="#808285" d="M119.046,85.303c-0.453,0.272-0.99,0.408-1.611,0.408c-0.84,0-1.518-0.272-2.034-0.819
			c-0.516-0.547-0.774-1.255-0.774-2.126c0-0.971,0.278-1.75,0.834-2.339s1.298-0.883,2.227-0.883c0.518,0,0.974,0.096,1.369,0.287
			v0.967c-0.437-0.307-0.905-0.46-1.404-0.46c-0.602,0-1.096,0.216-1.481,0.646c-0.385,0.432-0.578,0.999-0.578,1.7
			c0,0.69,0.181,1.235,0.543,1.635c0.363,0.398,0.849,0.598,1.458,0.598c0.514,0,0.998-0.17,1.45-0.512V85.303z"/>
		<path fill="#808285" d="M123.545,80.637c-0.165-0.127-0.403-0.189-0.713-0.189c-0.403,0-0.739,0.189-1.01,0.569
			s-0.406,0.897-0.406,1.554v3.003h-0.943v-5.892h0.943v1.214h0.023c0.134-0.414,0.339-0.737,0.615-0.97
			c0.276-0.231,0.585-0.348,0.926-0.348c0.246,0,0.434,0.026,0.564,0.08V80.637z"/>
		<path fill="#808285" d="M126.879,85.711c-0.871,0-1.566-0.274-2.085-0.825c-0.52-0.551-0.78-1.28-0.78-2.189
			c0-0.989,0.271-1.763,0.812-2.318c0.541-0.557,1.271-0.834,2.192-0.834c0.878,0,1.564,0.271,2.057,0.811
			c0.493,0.541,0.739,1.291,0.739,2.25c0,0.939-0.266,1.692-0.797,2.258C128.485,85.429,127.772,85.711,126.879,85.711z
			 M126.948,80.338c-0.606,0-1.086,0.206-1.438,0.618c-0.353,0.412-0.529,0.981-0.529,1.706c0,0.698,0.178,1.248,0.535,1.651
			c0.356,0.402,0.834,0.604,1.433,0.604c0.61,0,1.079-0.197,1.407-0.592c0.328-0.396,0.492-0.957,0.492-1.687
			c0-0.736-0.164-1.304-0.492-1.703C128.027,80.537,127.558,80.338,126.948,80.338z"/>
		<path fill="#808285" d="M130.963,85.36v-1.013c0.514,0.38,1.08,0.569,1.697,0.569c0.829,0,1.243-0.275,1.243-0.828
			c0-0.157-0.036-0.291-0.106-0.399c-0.071-0.109-0.167-0.207-0.288-0.291c-0.121-0.084-0.263-0.16-0.426-0.228
			c-0.163-0.066-0.339-0.137-0.527-0.21c-0.261-0.104-0.49-0.208-0.688-0.313c-0.197-0.105-0.362-0.225-0.495-0.356
			c-0.132-0.133-0.232-0.283-0.299-0.452c-0.067-0.168-0.101-0.366-0.101-0.592c0-0.276,0.063-0.521,0.19-0.734
			s0.295-0.391,0.506-0.535c0.211-0.144,0.452-0.252,0.722-0.324c0.27-0.073,0.549-0.109,0.837-0.109
			c0.51,0,0.967,0.088,1.369,0.265v0.955c-0.433-0.284-0.932-0.426-1.496-0.426c-0.177,0-0.336,0.02-0.478,0.061
			c-0.142,0.04-0.264,0.097-0.365,0.169c-0.102,0.073-0.181,0.16-0.236,0.262s-0.083,0.214-0.083,0.337
			c0,0.153,0.027,0.282,0.083,0.386s0.137,0.195,0.245,0.276c0.107,0.08,0.238,0.153,0.391,0.218
			c0.154,0.065,0.328,0.137,0.524,0.213c0.261,0.101,0.495,0.203,0.702,0.309c0.208,0.105,0.384,0.224,0.529,0.356
			c0.146,0.132,0.258,0.285,0.337,0.457c0.079,0.173,0.118,0.378,0.118,0.616c0,0.291-0.064,0.544-0.192,0.759
			c-0.129,0.215-0.3,0.394-0.515,0.535c-0.215,0.143-0.462,0.248-0.742,0.316c-0.28,0.069-0.574,0.104-0.88,0.104
			C131.934,85.711,131.409,85.595,130.963,85.36z"/>
		<path fill="#808285" d="M138.783,85.711c-0.871,0-1.566-0.274-2.085-0.825c-0.52-0.551-0.78-1.28-0.78-2.189
			c0-0.989,0.271-1.763,0.812-2.318c0.541-0.557,1.271-0.834,2.192-0.834c0.878,0,1.564,0.271,2.057,0.811
			c0.493,0.541,0.739,1.291,0.739,2.25c0,0.939-0.266,1.692-0.797,2.258C140.389,85.429,139.676,85.711,138.783,85.711z
			 M138.852,80.338c-0.606,0-1.086,0.206-1.438,0.618c-0.353,0.412-0.529,0.981-0.529,1.706c0,0.698,0.178,1.248,0.535,1.651
			c0.356,0.402,0.834,0.604,1.433,0.604c0.61,0,1.079-0.197,1.407-0.592c0.328-0.396,0.492-0.957,0.492-1.687
			c0-0.736-0.164-1.304-0.492-1.703C139.931,80.537,139.462,80.338,138.852,80.338z"/>
		<path fill="#808285" d="M145.923,77.68c-0.184-0.104-0.393-0.155-0.627-0.155c-0.66,0-0.99,0.416-0.99,1.248v0.909h1.381v0.806
			h-1.381v5.086h-0.938v-5.086h-1.007v-0.806h1.007v-0.955c0-0.617,0.178-1.105,0.535-1.464c0.357-0.359,0.802-0.538,1.335-0.538
			c0.288,0,0.516,0.034,0.685,0.104V77.68z"/>
		<path fill="#808285" d="M149.646,85.516c-0.223,0.123-0.516,0.185-0.88,0.185c-1.032,0-1.547-0.576-1.547-1.727v-3.486h-1.013
			v-0.806h1.013v-1.438l0.943-0.305v1.743h1.484v0.806h-1.484v3.319c0,0.396,0.067,0.678,0.201,0.846
			c0.134,0.169,0.357,0.254,0.667,0.254c0.238,0,0.443-0.065,0.616-0.196V85.516z"/>
		<path fill="#808285" d="M154.26,85.573v-8.251h2.278c2.907,0,4.361,1.341,4.361,4.022c0,1.273-0.404,2.296-1.212,3.069
			c-0.808,0.772-1.888,1.159-3.242,1.159H154.26z M155.226,78.197v6.501h1.231c1.082,0,1.924-0.289,2.526-0.868
			c0.602-0.579,0.903-1.4,0.903-2.463c0-2.113-1.124-3.17-3.372-3.17H155.226z"/>
		<path fill="#808285" d="M167.085,79.682l-2.71,6.835c-0.483,1.22-1.162,1.83-2.037,1.83c-0.245,0-0.45-0.025-0.615-0.075v-0.846
			c0.203,0.069,0.389,0.104,0.558,0.104c0.476,0,0.832-0.284,1.07-0.852l0.472-1.116l-2.302-5.88h1.048l1.594,4.534
			c0.019,0.057,0.06,0.207,0.12,0.448h0.035c0.019-0.092,0.058-0.237,0.115-0.438l1.674-4.545H167.085z"/>
		<path fill="#808285" d="M172.987,85.573h-0.943v-3.36c0-1.25-0.457-1.875-1.37-1.875c-0.472,0-0.861,0.177-1.17,0.532
			c-0.31,0.354-0.464,0.802-0.464,1.343v3.36h-0.943v-5.892h0.943v0.979h0.023c0.444-0.744,1.089-1.116,1.933-1.116
			c0.645,0,1.138,0.208,1.479,0.624c0.341,0.416,0.512,1.018,0.512,1.804V85.573z"/>
		<path fill="#808285" d="M178.983,85.573h-0.944v-0.921h-0.022c-0.411,0.706-1.015,1.059-1.813,1.059
			c-0.587,0-1.046-0.155-1.378-0.466s-0.498-0.723-0.498-1.237c0-1.101,0.648-1.741,1.945-1.921l1.766-0.248
			c0-1.001-0.404-1.501-1.214-1.501c-0.709,0-1.35,0.241-1.922,0.725v-0.967c0.579-0.368,1.247-0.552,2.003-0.552
			c1.385,0,2.077,0.732,2.077,2.197V85.573z M178.039,82.593l-1.421,0.195c-0.438,0.062-0.768,0.17-0.989,0.325
			c-0.223,0.155-0.334,0.431-0.334,0.826c0,0.287,0.103,0.522,0.308,0.705c0.205,0.182,0.479,0.272,0.82,0.272
			c0.468,0,0.854-0.164,1.159-0.491c0.305-0.328,0.457-0.743,0.457-1.246V82.593z"/>
		<path fill="#808285" d="M189.126,85.573h-0.943V82.19c0-0.652-0.101-1.124-0.302-1.416c-0.201-0.291-0.54-0.437-1.016-0.437
			c-0.402,0-0.745,0.184-1.027,0.552c-0.281,0.368-0.423,0.81-0.423,1.323v3.36h-0.943v-3.498c0-1.158-0.447-1.737-1.341-1.737
			c-0.414,0-0.755,0.173-1.023,0.521c-0.269,0.347-0.403,0.799-0.403,1.354v3.36h-0.943v-5.892h0.943v0.932h0.023
			c0.418-0.713,1.027-1.069,1.829-1.069c0.403,0,0.754,0.111,1.053,0.336c0.3,0.225,0.505,0.52,0.616,0.884
			c0.438-0.813,1.089-1.22,1.956-1.22c1.297,0,1.944,0.8,1.944,2.398V85.573z"/>
		<path fill="#808285" d="M191.393,78.186c-0.169,0-0.313-0.058-0.432-0.173c-0.119-0.114-0.179-0.261-0.179-0.437
			c0-0.177,0.06-0.323,0.179-0.44s0.263-0.176,0.432-0.176c0.173,0,0.319,0.059,0.44,0.176c0.12,0.117,0.181,0.264,0.181,0.44
			c0,0.169-0.061,0.313-0.181,0.432C191.712,78.126,191.565,78.186,191.393,78.186z M191.853,85.573h-0.943v-5.892h0.943V85.573z"/>
		<path fill="#808285" d="M197.779,85.303c-0.452,0.272-0.989,0.408-1.61,0.408c-0.84,0-1.519-0.272-2.034-0.819
			s-0.773-1.255-0.773-2.126c0-0.971,0.277-1.75,0.834-2.339c0.556-0.589,1.298-0.883,2.227-0.883c0.518,0,0.975,0.096,1.369,0.287
			v0.967c-0.438-0.307-0.905-0.46-1.403-0.46c-0.603,0-1.097,0.216-1.482,0.646c-0.385,0.432-0.578,0.999-0.578,1.7
			c0,0.69,0.182,1.235,0.544,1.635c0.362,0.398,0.849,0.598,1.459,0.598c0.514,0,0.997-0.17,1.449-0.512V85.303z"/>
		<path fill="#808285" d="M198.85,85.36v-1.013c0.514,0.38,1.079,0.569,1.697,0.569c0.828,0,1.242-0.275,1.242-0.828
			c0-0.157-0.035-0.291-0.106-0.399c-0.07-0.109-0.167-0.207-0.287-0.291c-0.121-0.084-0.263-0.16-0.426-0.228
			c-0.163-0.066-0.339-0.137-0.526-0.21c-0.261-0.104-0.49-0.208-0.688-0.313c-0.198-0.105-0.363-0.225-0.495-0.356
			c-0.133-0.133-0.232-0.283-0.299-0.452c-0.067-0.168-0.101-0.366-0.101-0.592c0-0.276,0.063-0.521,0.189-0.734
			s0.295-0.391,0.506-0.535c0.211-0.144,0.452-0.252,0.723-0.324c0.271-0.073,0.549-0.109,0.837-0.109
			c0.51,0,0.967,0.088,1.369,0.265v0.955c-0.434-0.284-0.932-0.426-1.496-0.426c-0.176,0-0.335,0.02-0.478,0.061
			c-0.142,0.04-0.264,0.097-0.365,0.169c-0.102,0.073-0.18,0.16-0.235,0.262s-0.084,0.214-0.084,0.337
			c0,0.153,0.028,0.282,0.084,0.386s0.137,0.195,0.244,0.276c0.107,0.08,0.238,0.153,0.392,0.218
			c0.153,0.065,0.328,0.137,0.523,0.213c0.261,0.101,0.495,0.203,0.702,0.309s0.383,0.224,0.529,0.356
			c0.146,0.132,0.258,0.285,0.336,0.457c0.079,0.173,0.118,0.378,0.118,0.616c0,0.291-0.064,0.544-0.192,0.759
			c-0.129,0.215-0.301,0.394-0.516,0.535c-0.215,0.143-0.462,0.248-0.742,0.316c-0.279,0.069-0.573,0.104-0.88,0.104
			C199.819,85.711,199.294,85.595,198.85,85.36z"/>
		<path fill="#808285" d="M213.946,85.573h-1.07l-0.874-2.313h-3.498l-0.823,2.313h-1.075l3.164-8.251h1.001L213.946,85.573z
			 M211.686,82.392l-1.295-3.516c-0.042-0.115-0.084-0.299-0.126-0.552h-0.023c-0.038,0.233-0.082,0.418-0.132,0.552l-1.283,3.516
			H211.686z"/>
		<path fill="#808285" d="M220.856,85.573h-1.179l-1.899-3.158c-0.058-0.097-0.12-0.232-0.189-0.409h-0.023
			c-0.038,0.089-0.104,0.225-0.195,0.409l-1.956,3.158h-1.186l2.762-4.148l-2.543-4.103h1.186l1.686,2.9
			c0.111,0.191,0.209,0.384,0.293,0.575h0.023c0.123-0.253,0.23-0.452,0.322-0.599l1.755-2.877h1.11l-2.595,4.091L220.856,85.573z"
			/>
	</g>
	<g clip-path="url(#SVGID_2_)">
		<defs>
			<path id="SVGID_3_" d="M236.822,51.327c0,0.408,0.331,0.739,0.737,0.739c0.408,0,0.739-0.331,0.739-0.739
				c0-0.407-0.331-0.739-0.739-0.739C237.153,50.588,236.822,50.92,236.822,51.327 M241.249,51.327c0,0.408,0.331,0.739,0.739,0.739
				s0.737-0.331,0.737-0.739c0-0.407-0.329-0.739-0.737-0.739S241.249,50.92,241.249,51.327 M246.562,51.327
				c0,0.408,0.331,0.739,0.739,0.739s0.738-0.331,0.738-0.739c0-0.407-0.33-0.739-0.738-0.739S246.562,50.92,246.562,51.327
				 M250.989,51.327c0,0.408,0.331,0.739,0.738,0.739c0.408,0,0.739-0.331,0.739-0.739c0-0.407-0.331-0.739-0.739-0.739
				C251.32,50.588,250.989,50.92,250.989,51.327 M236.822,46.9c0,0.408,0.331,0.738,0.737,0.738c0.408,0,0.739-0.33,0.739-0.738
				c0-0.409-0.331-0.739-0.739-0.739C237.153,46.161,236.822,46.491,236.822,46.9 M241.249,46.9c0,0.408,0.331,0.738,0.739,0.738
				s0.737-0.33,0.737-0.738c0-0.409-0.329-0.739-0.737-0.739S241.249,46.491,241.249,46.9 M259.844,46.9
				c0,0.408,0.332,0.738,0.739,0.738c0.408,0,0.739-0.33,0.739-0.738c0-0.409-0.331-0.739-0.739-0.739
				C260.176,46.161,259.844,46.491,259.844,46.9 M245.677,46.365c0,0.602,0.487,1.089,1.089,1.089c0.603,0,1.09-0.487,1.09-1.089
				s-0.487-1.089-1.09-1.089C246.164,45.276,245.677,45.763,245.677,46.365 M250.104,46.365c0,0.602,0.487,1.089,1.091,1.089
				c0.601,0,1.089-0.487,1.089-1.089s-0.488-1.089-1.089-1.089C250.591,45.276,250.104,45.763,250.104,46.365 M255.417,46.365
				c0,0.602,0.488,1.089,1.089,1.089c0.602,0,1.089-0.487,1.089-1.089s-0.487-1.089-1.089-1.089
				C255.905,45.276,255.417,45.763,255.417,46.365 M236.822,42.472c0,0.408,0.331,0.739,0.737,0.739
				c0.408,0,0.739-0.331,0.739-0.739c0-0.408-0.331-0.739-0.739-0.739C237.153,41.733,236.822,42.064,236.822,42.472
				 M241.249,41.937c0,0.602,0.487,1.09,1.09,1.09c0.602,0,1.089-0.488,1.089-1.09s-0.487-1.089-1.089-1.089
				C241.736,40.848,241.249,41.335,241.249,41.937 M245.677,41.937c0,0.602,0.487,1.09,1.089,1.09c0.603,0,1.09-0.488,1.09-1.09
				s-0.487-1.089-1.09-1.089C246.164,40.848,245.677,41.335,245.677,41.937 M250.104,41.937c0,0.602,0.487,1.09,1.091,1.09
				c0.601,0,1.089-0.488,1.089-1.09s-0.488-1.089-1.089-1.089C250.591,40.848,250.104,41.335,250.104,41.937 M254.532,42.244
				c0,0.772,0.625,1.397,1.396,1.397c0.772,0,1.396-0.625,1.396-1.397c0-0.771-0.624-1.396-1.396-1.396
				C255.157,40.848,254.532,41.473,254.532,42.244 M259.844,42.244c0,0.772,0.626,1.397,1.397,1.397
				c0.771,0,1.396-0.625,1.396-1.397c0-0.771-0.626-1.396-1.396-1.396C260.47,40.848,259.844,41.473,259.844,42.244 M264.272,41.586
				c0,0.409,0.33,0.739,0.737,0.739c0.409,0,0.739-0.33,0.739-0.739c0-0.407-0.33-0.738-0.739-0.738
				C264.603,40.848,264.272,41.179,264.272,41.586 M236.822,38.045c0,0.408,0.331,0.738,0.737,0.738c0.408,0,0.739-0.33,0.739-0.738
				c0-0.409-0.331-0.739-0.739-0.739C237.153,37.306,236.822,37.636,236.822,38.045 M241.249,37.51c0,0.602,0.487,1.089,1.09,1.089
				c0.602,0,1.089-0.487,1.089-1.089s-0.487-1.09-1.089-1.09C241.736,36.42,241.249,36.908,241.249,37.51 M245.677,37.51
				c0,0.602,0.487,1.089,1.089,1.089c0.603,0,1.09-0.487,1.09-1.089s-0.487-1.09-1.09-1.09
				C246.164,36.42,245.677,36.908,245.677,37.51 M250.104,37.817c0,0.772,0.625,1.396,1.397,1.396c0.771,0,1.396-0.624,1.396-1.396
				c0-0.771-0.625-1.397-1.396-1.397C250.729,36.42,250.104,37.046,250.104,37.817 M254.532,37.817c0,0.772,0.625,1.396,1.396,1.396
				c0.772,0,1.396-0.624,1.396-1.396c0-0.771-0.624-1.397-1.396-1.397C255.157,36.42,254.532,37.046,254.532,37.817 M259.844,37.817
				c0,0.772,0.626,1.396,1.397,1.396c0.771,0,1.396-0.624,1.396-1.396c0-0.771-0.626-1.397-1.396-1.397
				C260.47,36.42,259.844,37.046,259.844,37.817 M264.272,37.817c0,0.772,0.625,1.396,1.396,1.396c0.772,0,1.397-0.624,1.397-1.396
				c0-0.771-0.625-1.397-1.397-1.397C264.897,36.42,264.272,37.046,264.272,37.817 M241.249,33.082c0,0.602,0.487,1.089,1.09,1.089
				c0.602,0,1.089-0.487,1.089-1.089c0-0.602-0.487-1.089-1.089-1.089C241.736,31.993,241.249,32.48,241.249,33.082 M245.677,33.389
				c0,0.772,0.625,1.397,1.396,1.397s1.396-0.625,1.396-1.397c0-0.771-0.624-1.396-1.396-1.396S245.677,32.618,245.677,33.389
				 M250.104,33.389c0,0.772,0.625,1.397,1.397,1.397c0.771,0,1.396-0.625,1.396-1.397c0-0.771-0.625-1.396-1.396-1.396
				C250.729,31.993,250.104,32.618,250.104,33.389 M254.532,33.389c0,0.772,0.625,1.397,1.396,1.397
				c0.772,0,1.396-0.625,1.396-1.397c0-0.771-0.624-1.396-1.396-1.396C255.157,31.993,254.532,32.618,254.532,33.389
				 M259.844,33.389c0,0.772,0.626,1.397,1.397,1.397c0.771,0,1.396-0.625,1.396-1.397c0-0.771-0.626-1.396-1.396-1.396
				C260.47,31.993,259.844,32.618,259.844,33.389 M242.134,29.19c0,0.408,0.331,0.739,0.739,0.739c0.409,0,0.739-0.331,0.739-0.739
				c0-0.408-0.33-0.739-0.739-0.739C242.465,28.451,242.134,28.782,242.134,29.19 M258.849,29.466
				c-0.301,1.014,0.496,1.501,1.397,1.397c0.766-0.089,1.396-0.626,1.396-1.397c0-0.328-0.113-0.631-0.304-0.869l-0.274-0.263
				c-0.23-0.166-0.514-0.265-0.818-0.265C259.474,28.069,259.069,28.726,258.849,29.466 M250.104,28.962
				c0,0.772,0.625,1.397,1.397,1.397c0.771,0,1.396-0.625,1.396-1.397c0-0.771-0.625-1.397-1.396-1.397
				C250.729,27.565,250.104,28.191,250.104,28.962 M254.532,28.962c0,0.772,0.625,1.397,1.396,1.397
				c0.772,0,1.396-0.625,1.396-1.397c0-0.771-0.624-1.397-1.396-1.397C255.157,27.565,254.532,28.191,254.532,28.962
				 M245.677,28.077c0,0.771,0.625,1.396,1.396,1.396s1.396-0.625,1.396-1.396c0-0.772-0.624-1.397-1.396-1.397
				S245.677,27.305,245.677,28.077 M245.677,24.227c0,0.602,0.487,1.089,1.089,1.089c0.603,0,1.09-0.487,1.09-1.089
				c0-0.601-0.487-1.089-1.09-1.089C246.164,23.138,245.677,23.626,245.677,24.227 M250.104,24.534c0,0.771,0.625,1.397,1.397,1.397
				c0.771,0,1.396-0.626,1.396-1.397s-0.625-1.396-1.396-1.396C250.729,23.138,250.104,23.763,250.104,24.534 M250.989,18.71
				l-0.297,0.258c-0.356,0.253-0.589,0.669-0.589,1.139c0,0.771,0.625,1.397,1.397,1.397c0.64,0,1.18-0.432,1.345-1.02l2.86,2.732
				c-0.701,0.074-1.247,0.667-1.247,1.388c0,0.772,0.624,1.397,1.396,1.397c0.741,0,1.35-0.58,1.394-1.311l3.815,3.644
				c0.103,0.075,0.195,0.163,0.274,0.263l3.708,3.542c-0.459,0.228-0.774,0.702-0.774,1.25c0,0.772,0.625,1.397,1.396,1.397
				c0.571,0,1.063-0.342,1.278-0.833l1.803,1.722c-0.032,0.119-0.05,0.243-0.05,0.371c0,0.771,0.626,1.397,1.396,1.397
				c0.708,0,1.291-0.526,1.383-1.208c1.784-2.868,7.174-8.724,19.063-2.029c-10.924-10.713-18.933-21.575-27.909-21.576
				C258.997,12.63,255.202,14.413,250.989,18.71"/>
		</defs>
		<clipPath id="SVGID_4_">
			<use xlink:href="#SVGID_3_"  overflow="visible"/>
		</clipPath>
		<defs>
			<filter id="Adobe_OpacityMaskFilter" filterUnits="userSpaceOnUse" x="224.147" y="-4.635" width="79.069" height="73.966">
				<feColorMatrix  type="matrix" values="1 0 0 0 0  0 1 0 0 0  0 0 1 0 0  0 0 0 1 0"/>
			</filter>
		</defs>
		<mask maskUnits="userSpaceOnUse" x="224.147" y="-4.635" width="79.069" height="73.966" id="SVGID_5_">
			<g filter="url(#Adobe_OpacityMaskFilter)">
				
					<linearGradient id="SVGID_6_" gradientUnits="userSpaceOnUse" x1="0" y1="104.2373" x2="1" y2="104.2373" gradientTransform="matrix(11.6482 32.0032 32.0032 -11.6482 -3078.9453 1228.1323)">
					<stop  offset="0" style="stop-color:#FFFFFF"/>
					<stop  offset="1" style="stop-color:#000000"/>
					<stop  offset="1" style="stop-color:#000000"/>
				</linearGradient>
				<polygon clip-path="url(#SVGID_4_)" fill="url(#SVGID_6_)" points="284.258,-4.635 303.217,47.453 243.106,69.331 
					224.147,17.243 				"/>
			</g>
		</mask>
		
			<linearGradient id="SVGID_7_" gradientUnits="userSpaceOnUse" x1="0" y1="104.2373" x2="1" y2="104.2373" gradientTransform="matrix(11.6482 32.0032 32.0032 -11.6482 -3078.9453 1228.1323)">
			<stop  offset="0" style="stop-color:#49B749"/>
			<stop  offset="1" style="stop-color:#4AB749"/>
			<stop  offset="1" style="stop-color:#4AB749"/>
		</linearGradient>
		<polygon clip-path="url(#SVGID_4_)" mask="url(#SVGID_5_)" fill="url(#SVGID_7_)" points="284.258,-4.635 303.217,47.453 
			243.106,69.331 224.147,17.243 		"/>
	</g>
	<g clip-path="url(#SVGID_2_)">
		<defs>
			<path id="SVGID_8_" d="M279.508,66.38c0,0.601,0.488,1.089,1.09,1.089s1.088-0.488,1.088-1.089c0-0.602-0.486-1.09-1.088-1.09
				S279.508,65.778,279.508,66.38 M274.466,66.072c0,0.771,0.625,1.396,1.397,1.396c0.771,0,1.396-0.626,1.396-1.396
				c0-0.771-0.625-1.397-1.396-1.397C275.091,64.675,274.466,65.301,274.466,66.072 M278.894,62.53c0,0.771,0.625,1.396,1.397,1.396
				c0.771,0,1.395-0.624,1.395-1.396s-0.623-1.396-1.395-1.396C279.519,61.134,278.894,61.759,278.894,62.53 M283.751,61.417
				c0,0.408,0.331,0.738,0.739,0.738s0.738-0.33,0.738-0.738c0-0.409-0.33-0.739-0.738-0.739S283.751,61.008,283.751,61.417
				 M270.039,61.645c0,0.771,0.625,1.396,1.396,1.396c0.772,0,1.396-0.625,1.396-1.396c0-0.771-0.624-1.396-1.396-1.396
				C270.664,60.248,270.039,60.874,270.039,61.645 M274.466,61.645c0,0.771,0.625,1.396,1.397,1.396
				c0.771,0,1.396-0.625,1.396-1.396c0-0.771-0.625-1.396-1.396-1.396C275.091,60.248,274.466,60.874,274.466,61.645
				 M267.117,59.744c-0.767,0.089-1.396,0.626-1.396,1.396c0,0.329,0.114,0.632,0.306,0.871l0.271,0.259
				c0.23,0.167,0.513,0.267,0.819,0.267c0.771,0,1.177-0.657,1.396-1.396c0.274-0.924-0.362-1.411-1.16-1.411
				C267.276,59.729,267.197,59.734,267.117,59.744 M283.936,57.524c0,0.602,0.487,1.09,1.09,1.09c0.602,0,1.09-0.488,1.09-1.09
				c0-0.603-0.488-1.09-1.09-1.09C284.423,56.435,283.936,56.922,283.936,57.524 M264.726,57.217c0,0.771,0.625,1.397,1.396,1.397
				c0.771,0,1.396-0.626,1.396-1.397s-0.626-1.396-1.396-1.396C265.351,55.821,264.726,56.445,264.726,57.217 M270.039,57.217
				c0,0.771,0.625,1.397,1.396,1.397c0.772,0,1.396-0.626,1.396-1.397s-0.624-1.396-1.396-1.396
				C270.664,55.821,270.039,56.445,270.039,57.217 M274.466,57.217c0,0.771,0.625,1.397,1.397,1.397
				c0.771,0,1.396-0.626,1.396-1.397s-0.625-1.396-1.396-1.396C275.091,55.821,274.466,56.445,274.466,57.217 M278.894,57.217
				c0,0.771,0.625,1.397,1.397,1.397c0.771,0,1.395-0.626,1.395-1.397s-0.623-1.396-1.395-1.396
				C279.519,55.821,278.894,56.445,278.894,57.217 M255.884,54.371c-1.784,2.869-7.173,8.724-19.062,2.028
				c15.348,15.054,24.94,30.402,39.552,15.496l0.303-0.263c0.354-0.253,0.582-0.667,0.582-1.134c0-0.771-0.625-1.396-1.396-1.396
				c-0.642,0-1.182,0.432-1.347,1.02l-2.859-2.731c0.702-0.075,1.248-0.668,1.248-1.389c0-0.772-0.625-1.397-1.397-1.397
				c-0.742,0-1.35,0.58-1.394,1.313l-3.816-3.646c-0.102-0.073-0.194-0.161-0.271-0.259l-3.71-3.544
				c0.46-0.229,0.775-0.703,0.775-1.251c0-0.771-0.626-1.396-1.396-1.396c-0.571,0-1.063,0.342-1.279,0.832l-1.802-1.722
				c0.032-0.118,0.05-0.243,0.05-0.371c0-0.771-0.625-1.396-1.396-1.396C256.561,53.164,255.976,53.688,255.884,54.371
				 M279.508,53.097c0,0.603,0.488,1.09,1.09,1.09s1.088-0.487,1.088-1.09c0-0.602-0.486-1.089-1.088-1.089
				S279.508,52.495,279.508,53.097 M283.936,53.097c0,0.603,0.487,1.09,1.09,1.09c0.602,0,1.09-0.487,1.09-1.09
				c0-0.602-0.488-1.089-1.09-1.089C284.423,52.008,283.936,52.495,283.936,53.097 M289.065,52.562c0,0.408,0.329,0.739,0.737,0.739
				s0.739-0.331,0.739-0.739c0-0.408-0.331-0.739-0.739-0.739S289.065,52.154,289.065,52.562 M260.298,52.79
				c0,0.771,0.625,1.396,1.397,1.396c0.771,0,1.396-0.626,1.396-1.396c0-0.772-0.626-1.397-1.396-1.397
				C260.923,51.393,260.298,52.018,260.298,52.79 M264.726,52.79c0,0.771,0.625,1.396,1.396,1.396c0.771,0,1.396-0.626,1.396-1.396
				c0-0.772-0.626-1.397-1.396-1.397C265.351,51.393,264.726,52.018,264.726,52.79 M270.039,52.79c0,0.771,0.625,1.396,1.396,1.396
				c0.772,0,1.396-0.626,1.396-1.396c0-0.772-0.624-1.397-1.396-1.397C270.664,51.393,270.039,52.018,270.039,52.79 M274.466,52.79
				c0,0.771,0.625,1.396,1.397,1.396c0.771,0,1.396-0.626,1.396-1.396c0-0.772-0.625-1.397-1.396-1.397
				C275.091,51.393,274.466,52.018,274.466,52.79 M261.614,49.02c0,0.408,0.331,0.738,0.738,0.738s0.739-0.33,0.739-0.738
				c0-0.408-0.332-0.738-0.739-0.738S261.614,48.612,261.614,49.02 M275.081,48.67c0,0.601,0.487,1.088,1.089,1.088
				c0.603,0,1.089-0.487,1.089-1.088c0-0.603-0.486-1.089-1.089-1.089C275.568,47.581,275.081,48.067,275.081,48.67 M279.508,48.67
				c0,0.601,0.488,1.088,1.09,1.088s1.088-0.487,1.088-1.088c0-0.603-0.486-1.089-1.088-1.089S279.508,48.067,279.508,48.67
				 M283.936,48.67c0,0.601,0.487,1.088,1.09,1.088c0.602,0,1.09-0.487,1.09-1.088c0-0.603-0.488-1.089-1.09-1.089
				C284.423,47.581,283.936,48.067,283.936,48.67 M289.065,48.134c0,0.409,0.329,0.739,0.737,0.739s0.739-0.33,0.739-0.739
				c0-0.408-0.331-0.738-0.739-0.738S289.065,47.726,289.065,48.134 M264.726,48.362c0,0.771,0.625,1.396,1.396,1.396
				c0.771,0,1.396-0.625,1.396-1.396c0-0.772-0.626-1.396-1.396-1.396C265.351,46.966,264.726,47.59,264.726,48.362 M270.039,48.362
				c0,0.771,0.625,1.396,1.396,1.396c0.772,0,1.396-0.625,1.396-1.396c0-0.772-0.624-1.396-1.396-1.396
				C270.664,46.966,270.039,47.59,270.039,48.362 M269.768,44.241c0,0.603,0.488,1.09,1.09,1.09s1.09-0.487,1.09-1.09
				c0-0.601-0.488-1.089-1.09-1.089S269.768,43.64,269.768,44.241 M275.081,44.241c0,0.603,0.487,1.09,1.089,1.09
				c0.603,0,1.089-0.487,1.089-1.09c0-0.601-0.486-1.089-1.089-1.089C275.568,43.152,275.081,43.64,275.081,44.241 M279.508,44.241
				c0,0.603,0.488,1.09,1.09,1.09s1.088-0.487,1.088-1.09c0-0.601-0.486-1.089-1.088-1.089S279.508,43.64,279.508,44.241
				 M266.042,43.707c0,0.408,0.33,0.739,0.738,0.739c0.407,0,0.738-0.331,0.738-0.739c0-0.408-0.331-0.739-0.738-0.739
				C266.372,42.968,266.042,43.299,266.042,43.707 M284.637,43.707c0,0.408,0.331,0.739,0.739,0.739
				c0.407,0,0.739-0.331,0.739-0.739c0-0.408-0.332-0.739-0.739-0.739C284.968,42.968,284.637,43.299,284.637,43.707
				 M289.065,43.707c0,0.408,0.329,0.739,0.737,0.739s0.739-0.331,0.739-0.739c0-0.408-0.331-0.739-0.739-0.739
				S289.065,43.299,289.065,43.707 M274.896,39.28c0,0.407,0.33,0.738,0.738,0.738s0.739-0.331,0.739-0.738
				c0-0.409-0.331-0.739-0.739-0.739S274.896,38.871,274.896,39.28 M279.324,39.28c0,0.407,0.33,0.738,0.738,0.738
				s0.738-0.331,0.738-0.738c0-0.409-0.33-0.739-0.738-0.739S279.324,38.871,279.324,39.28 M284.637,39.28
				c0,0.407,0.331,0.738,0.739,0.738c0.407,0,0.739-0.331,0.739-0.738c0-0.409-0.332-0.739-0.739-0.739
				C284.968,38.541,284.637,38.871,284.637,39.28 M289.065,39.28c0,0.407,0.329,0.738,0.737,0.738s0.739-0.331,0.739-0.738
				c0-0.409-0.331-0.739-0.739-0.739S289.065,38.871,289.065,39.28"/>
		</defs>
		<clipPath id="SVGID_9_">
			<use xlink:href="#SVGID_8_"  overflow="visible"/>
		</clipPath>
		<defs>
			<filter id="Adobe_OpacityMaskFilter_1_" filterUnits="userSpaceOnUse" x="221.312" y="21.275" width="84.741" height="82.792">
				<feColorMatrix  type="matrix" values="1 0 0 0 0  0 1 0 0 0  0 0 1 0 0  0 0 0 1 0"/>
			</filter>
		</defs>
		<mask maskUnits="userSpaceOnUse" x="221.312" y="21.275" width="84.741" height="82.792" id="SVGID_10_">
			<g filter="url(#Adobe_OpacityMaskFilter_1_)">
				
					<linearGradient id="SVGID_11_" gradientUnits="userSpaceOnUse" x1="0" y1="104.0713" x2="1" y2="104.0713" gradientTransform="matrix(15.8662 -43.5919 -43.5919 -15.8662 4795.3447 1727.7373)">
					<stop  offset="0" style="stop-color:#FFFFFF"/>
					<stop  offset="1" style="stop-color:#000000"/>
					<stop  offset="1" style="stop-color:#000000"/>
				</linearGradient>
				<polygon clip-path="url(#SVGID_9_)" fill="url(#SVGID_11_)" points="221.312,81.156 243.106,21.275 306.053,44.187 
					284.258,104.067 				"/>
			</g>
		</mask>
		
			<linearGradient id="SVGID_12_" gradientUnits="userSpaceOnUse" x1="0" y1="104.0713" x2="1" y2="104.0713" gradientTransform="matrix(15.8662 -43.5919 -43.5919 -15.8662 4795.3369 1727.7301)">
			<stop  offset="0" style="stop-color:#733F98"/>
			<stop  offset="1" style="stop-color:#673695"/>
			<stop  offset="1" style="stop-color:#673695"/>
		</linearGradient>
		<polygon clip-path="url(#SVGID_9_)" mask="url(#SVGID_10_)" fill="url(#SVGID_12_)" points="221.312,81.156 243.106,21.275 
			306.053,44.187 284.258,104.067 		"/>
	</g>
	<g clip-path="url(#SVGID_2_)">
		<defs>
			<rect id="SVGID_13_" width="304.959" height="104.132"/>
		</defs>
		<clipPath id="SVGID_14_">
			<use xlink:href="#SVGID_13_"  overflow="visible"/>
		</clipPath>
		<rect x="21.565" y="71.213" clip-path="url(#SVGID_14_)" fill="#808285" width="199.759" height="0.771"/>
	</g>
</g>
</svg>
